<?xml version="1.0" encoding="UTF-8"?>
<svg width="23px" height="18px" viewBox="0 0 23 18" version="1.1" xmlns="http://www.w3.org/2000/svg" xmlns:xlink="http://www.w3.org/1999/xlink">
    <!-- Generator: sketchtool 63.1 (101010) - https://sketch.com -->
    <title>AACD5E73-61F7-40C4-88F3-2D721A0C525F</title>
    <desc>Created with sketchtool.</desc>
    <defs>
        <linearGradient x1="50%" y1="3.15886922%" x2="50%" y2="105.688741%" id="linearGradient-1">
            <stop stop-color="#6F6EB2" offset="0%"></stop>
            <stop stop-color="#352C64" offset="100%"></stop>
        </linearGradient>
    </defs>
    <g id="Page-1" stroke="none" stroke-width="1" fill="none" fill-rule="evenodd">
        <g id="Phatra_test" transform="translate(-900.000000, -2985.000000)" fill="#FFFFFF" fill-rule="nonzero">
            <g id="Group-5" transform="translate(1.000000, 2797.000000)">
                <g id="Group-13" transform="translate(899.000000, 181.000000)">
                    <g id="ic_mail" transform="translate(0.000000, 7.000000)">
                        <path d="M20.1922084,0 C21.7436248,0 23.0047455,1.28535765 23,2.86064561 L23,2.86064561 L23,14.9169138 C23,16.4922018 21.7388659,17.7727273 20.1874494,17.7727273 L20.1874494,17.7727273 L2.81253715,17.7727273 C1.26112072,17.7727273 0,16.4922018 0,14.9169138 L0,14.9169138 L0,2.85581344 C0,1.28052548 1.26112072,0 2.81253715,0 L2.81253715,0 Z M20.1874494,1.30951851 L2.81253715,1.30951851 C1.97020369,1.30951851 1.28491545,2.00535123 1.28491545,2.86064561 L1.28491545,2.86064561 L1.28491545,14.9169138 C1.28491545,15.7722082 1.97020369,16.4680409 2.81253715,16.4680409 L2.81253715,16.4680409 L20.1922084,16.4680409 C21.0345418,16.4680409 21.7198301,15.7722082 21.7198301,14.9169138 L21.7198301,14.9169138 L21.7150711,14.9169138 L21.7150711,2.86064561 C21.7150711,2.00535123 21.0297829,1.30951851 20.1874494,1.30951851 L20.1874494,1.30951851 Z M2.25564989,3.3511292 C2.4945695,3.08666402 2.90073282,3.06305106 3.16832278,3.29918068 L3.16832278,3.29918068 L9.3515621,8.76794278 C9.38978924,8.79627834 9.42323798,8.82461389 9.45668673,8.85767204 C9.45668673,8.86239463 9.46146512,8.86711722 9.46624351,8.87183982 L9.46624351,8.87183982 L10.9857722,10.2130561 L18.7745512,3.30390327 C19.0421412,3.06777365 19.4483045,3.09138661 19.6872241,3.3511292 C19.9261437,3.61559438 19.9022518,4.01701474 19.6394402,4.25314436 L19.6394402,4.25314436 L13.9913808,9.2590924 L19.6633322,14.5814541 C19.9213653,14.8223063 19.9309221,15.2284493 19.6872241,15.4834693 C19.5582075,15.6157019 19.3909638,15.6818182 19.2189417,15.6818182 C19.0612548,15.6818182 18.8987894,15.6251471 18.7745512,15.5070823 L18.7745512,15.5070823 L13.030924,10.1138816 L11.4206059,11.5401046 C11.3011461,11.6487242 11.1434591,11.7053953 10.9905506,11.7053953 C10.837642,11.7053953 10.6847335,11.6534468 10.5604953,11.5448272 L10.5604953,11.5448272 L8.9931827,10.1611076 L3.2161067,15.5023597 C3.0918685,15.6157019 2.93418157,15.672373 2.77649463,15.672373 C2.60447251,15.672373 2.4324504,15.6015341 2.30343381,15.4693015 C2.05973582,15.2095589 2.074071,14.8081386 2.33210417,14.5672864 L2.33210417,14.5672864 L8.02316911,9.30159573 L2.30821221,4.25314436 C2.04062225,4.01701474 2.01673029,3.61559438 2.25564989,3.3511292 Z" id="Combined-Shape"></path>
                    </g>
                </g>
            </g>
        </g>
    </g>
</svg>