<?xml version="1.0" encoding="UTF-8"?>
<svg width="22px" height="23px" viewBox="0 0 22 23" version="1.1" xmlns="http://www.w3.org/2000/svg" xmlns:xlink="http://www.w3.org/1999/xlink">
    <!-- Generator: sketchtool 63.1 (101010) - https://sketch.com -->
    <title>9B46023B-8675-498A-A2A6-45DC858433C8</title>
    <desc>Created with sketchtool.</desc>
    <g id="Page-1" stroke="none" stroke-width="1" fill="none" fill-rule="evenodd">
        <g id="Phatra_test" transform="translate(-899.000000, -2888.000000)" fill="#FFFFFF" fill-rule="nonzero">
            <g id="ic_tel" transform="translate(899.000000, 2888.000000)">
                <g id="phone-call">
                    <path d="M18.5198919,13.7103495 C18.0397063,13.1899642 17.4605134,12.9117384 16.8466678,12.9117384 C16.2377727,12.9117384 15.6536294,13.1848118 15.1536423,13.7051971 L13.5893263,15.328181 C13.4606167,15.2560484 13.3319072,15.1890681 13.208148,15.1220878 C13.0299348,15.0293459 12.8616223,14.9417563 12.7180617,14.8490143 C11.252753,13.8803763 9.92110425,12.6180556 8.64390954,10.984767 C8.02511365,10.1706989 7.60928281,9.48543907 7.30731042,8.78987455 C7.71324052,8.40344982 8.08946842,8.0015681 8.45579559,7.61514337 C8.59440586,7.47087814 8.73301614,7.32146057 8.87162642,7.17719534 C9.91120352,6.09520609 9.91120352,4.6937724 8.87162642,3.61178315 L7.5201762,2.20519713 C7.36671482,2.04547491 7.20830307,1.88060036 7.05979206,1.71572581 C6.76277003,1.39628136 6.45089691,1.06653226 6.12912304,0.757392473 C5.64893743,0.262768817 5.07469485,0 4.47075006,0 C3.86680527,0 3.28266195,0.262768817 2.78762524,0.757392473 C2.78267488,0.762544803 2.78267488,0.762544803 2.77772451,0.767697133 L1.09459969,2.53494624 C0.460952701,3.19444444 0.0995759022,3.99820789 0.0203700284,4.93077957 C-0.0984387823,6.43525986 0.327292789,7.83669355 0.654017019,8.75380824 C1.45597649,11.0053763 2.65396533,13.0920699 4.44104786,15.328181 C6.60930865,18.0228495 9.21815212,20.1507616 12.1982731,21.6500896 C13.3368576,22.2116935 14.8566203,22.8763441 16.5545962,22.9896953 C16.6585539,22.9948477 16.767462,23 16.8664693,23 C18.0100041,23 18.9703753,22.5723566 19.7228311,21.7222222 C19.7277815,21.7119176 19.7376822,21.7067652 19.7426326,21.6964606 C20.0000517,21.3718638 20.2970737,21.078181 20.6089468,20.7638889 C20.8218126,20.5526434 21.0396288,20.3310932 21.2524946,20.0992384 C21.7425809,19.5685484 22,18.9502688 22,18.3165323 C22,17.6776434 21.7376305,17.0645161 21.2376435,16.5492832 L18.5198919,13.7103495 Z M20.2921233,19.1357527 C20.287173,19.1357527 20.287173,19.140905 20.2921233,19.1357527 C20.099059,19.3521505 19.9010443,19.5479391 19.6881786,19.7643369 C19.3664047,20.0837814 19.0396805,20.4186828 18.7327577,20.7948029 C18.2327706,21.3512545 17.6436769,21.6140233 16.8714197,21.6140233 C16.7971642,21.6140233 16.7179583,21.6140233 16.6437028,21.608871 C15.1734438,21.5109767 13.8071424,20.9133065 12.7824164,20.4032258 C9.98050866,18.9914875 7.5201762,16.9872312 5.47567458,14.4471326 C3.7875994,12.3295251 2.6589157,10.3716398 1.91141026,8.26948925 C1.45102612,6.98655914 1.28271364,5.98700717 1.35696915,5.04413082 C1.40647282,4.44130824 1.62923934,3.94153226 2.04011981,3.51388889 L3.72819499,1.75694444 C3.97076298,1.51993728 4.22818207,1.39112903 4.4806508,1.39112903 C4.79252392,1.39112903 5.04499265,1.58691756 5.20340439,1.75179211 C5.20835476,1.75694444 5.21330513,1.76209677 5.21825549,1.7672491 C5.52022789,2.0609319 5.80734918,2.36491935 6.10932157,2.68951613 C6.26278296,2.85439068 6.4211947,3.01926523 6.57960645,3.18929211 L7.93105667,4.59587814 C8.45579559,5.14202509 8.45579559,5.64695341 7.93105667,6.19310036 C7.78749603,6.34251792 7.64888575,6.49193548 7.5053251,6.63620072 C7.08949426,7.07930108 6.69346489,7.49148746 6.26278296,7.89336918 C6.25288222,7.90367384 6.24298149,7.90882616 6.23803112,7.91913082 C5.81229955,8.36223118 5.89150542,8.79502688 5.98061203,9.08870968 C5.9855624,9.10416667 5.99051276,9.11962366 5.99546313,9.13508065 C6.3469392,10.0212814 6.84197591,10.8559588 7.59443171,11.8503584 L7.59938207,11.8555108 C8.9656834,13.6073029 10.4062402,14.9726703 11.9953081,16.0185932 C12.1982731,16.1525538 12.4061885,16.2607527 12.6042032,16.3637993 C12.7824164,16.4565412 12.9507289,16.5441308 13.0942896,16.6368728 C13.114091,16.6471774 13.1338925,16.6626344 13.153694,16.6729391 C13.3220065,16.7605287 13.4804182,16.8017473 13.6437803,16.8017473 C14.0546608,16.8017473 14.3120799,16.5338262 14.3962361,16.4462366 L16.0892617,14.6841398 C16.2575742,14.5089606 16.524894,14.2977151 16.8367671,14.2977151 C17.1436899,14.2977151 17.3961586,14.4986559 17.54962,14.6738351 C17.5545703,14.6789875 17.5545703,14.6789875 17.5595207,14.6841398 L20.287173,17.5230735 C20.7970608,18.0486111 20.7970608,18.5896057 20.2921233,19.1357527 Z" id="Shape"></path>
                </g>
            </g>
        </g>
    </g>
</svg>