<?xml version="1.0" encoding="UTF-8"?>
<svg width="23px" height="23px" viewBox="0 0 23 23" version="1.1" xmlns="http://www.w3.org/2000/svg" xmlns:xlink="http://www.w3.org/1999/xlink">
    <!-- Generator: sketchtool 63.1 (101010) - https://sketch.com -->
    <title>BA233715-A244-444D-AE5F-9A42B40F31A6</title>
    <desc>Created with sketchtool.</desc>
    <g id="Page-1" stroke="none" stroke-width="1" fill="none" fill-rule="evenodd">
        <g id="Phatra_test" transform="translate(-898.000000, -2935.000000)" fill="#FFFFFF" fill-rule="nonzero">
            <g id="ic_fax" transform="translate(898.000000, 2935.000000)">
                <path d="M15.226341,0 C17.1973397,0 18.8022242,1.5253886 18.8022242,3.39875648 L18.8022242,3.39875648 L18.8022242,4.71440415 L19.4241169,4.71440415 C21.3951156,4.71440415 23,6.23979275 23,8.11316062 L23,8.11316062 L23,13.5950259 C23,15.4683938 21.3951156,16.9937824 19.4241169,16.9937824 L19.4241169,16.9937824 L18.7972089,16.9937824 L18.7972089,21.3030052 C18.7972089,22.2373057 17.9947667,23 17.011775,23 L17.011775,23 L5.9230266,23 C4.94003489,23 4.13759267,22.2373057 4.13759267,21.3030052 L4.13759267,21.3030052 L4.13759267,16.9937824 L3.57588312,16.9937824 C1.60488443,16.9937824 -5.68434189e-14,15.4683938 -5.68434189e-14,13.5950259 L-5.68434189e-14,13.5950259 L-5.68434189e-14,8.11316062 C-5.68434189e-14,6.23979275 1.60488443,4.71440415 3.57588312,4.71440415 L3.57588312,4.71440415 L4.14260794,4.71440415 L4.14260794,3.39875648 C4.14260794,1.5253886 5.74749237,0 7.71849106,0 L7.71849106,0 Z M17.4430877,14.2051813 L5.49171391,14.2051813 L5.49171391,21.3125389 C5.49171391,21.5365803 5.6873092,21.722487 5.9230266,21.722487 L5.9230266,21.722487 L17.011775,21.722487 C17.2474924,21.722487 17.4430877,21.5365803 17.4430877,21.3125389 L17.4430877,21.3125389 L17.4430877,14.2051813 Z M15.7644904,18.6190476 C16.1312217,18.6190476 16.4285714,18.8624339 16.4285714,19.1666667 C16.4285714,19.4708995 16.1312217,19.7142857 15.7595346,19.7142857 L15.7595346,19.7142857 L7.24046542,19.7142857 C6.86877828,19.7142857 6.57142857,19.4708995 6.57142857,19.1666667 C6.57142857,18.8624339 6.86877828,18.6190476 7.24046542,18.6190476 L7.24046542,18.6190476 Z M15.7595346,15.3333333 C16.1312217,15.3333333 16.4285714,15.5767196 16.4285714,15.8809524 C16.4285714,16.1851852 16.1312217,16.4285714 15.7595346,16.4285714 L15.7595346,16.4285714 L7.24046542,16.4285714 C6.87373411,16.4285714 6.57142857,16.1851852 6.57142857,15.8809524 C6.57142857,15.5767196 6.86877828,15.3333333 7.24046542,15.3333333 L7.24046542,15.3333333 Z M19.4241169,6.00621762 L3.57588312,6.00621762 C2.35215874,6.00621762 1.35412124,6.95481865 1.35412124,8.11792746 L1.35412124,8.11792746 L1.35412124,13.5997927 C1.35412124,14.7629016 2.35215874,15.7115026 3.57588312,15.7115026 L3.57588312,15.7115026 L4.14260794,15.7115026 L4.14260794,14.2051813 L3.14457043,14.2051813 C2.76842564,14.2051813 2.46750981,13.919171 2.46750981,13.561658 C2.46750981,13.2041451 2.76842564,12.9181347 3.14457043,12.9181347 L3.14457043,12.9181347 L19.6949411,12.9181347 C20.0710859,12.9181347 20.3720017,13.2041451 20.3720017,13.561658 C20.3720017,13.919171 20.0710859,14.2051813 19.6949411,14.2051813 L19.6949411,14.2051813 L18.8022242,14.2051813 L18.8022242,15.7115026 L19.4241169,15.7115026 C20.6478413,15.7115026 21.6458788,14.7629016 21.6458788,13.5997927 L21.6458788,13.5997927 L21.6458788,8.11792746 C21.6458788,6.95481865 20.6478413,6.00621762 19.4241169,6.00621762 L19.4241169,6.00621762 Z M15.2163105,1.28704663 L7.7134758,1.28704663 C6.48975142,1.28704663 5.49171391,2.23564767 5.49171391,3.39875648 L5.49171391,3.39875648 L5.49171391,4.71440415 L17.4380724,4.71440415 L17.4380724,3.39875648 C17.4380724,2.23564767 16.4400349,1.28704663 15.2163105,1.28704663 L15.2163105,1.28704663 Z" id="Combined-Shape"></path>
            </g>
        </g>
    </g>
</svg>