<?xml version="1.0" encoding="UTF-8"?>
<svg width="44px" height="44px" viewBox="0 0 44 44" version="1.1" xmlns="http://www.w3.org/2000/svg" xmlns:xlink="http://www.w3.org/1999/xlink">
    <!-- Generator: sketchtool 63.1 (101010) - https://sketch.com -->
    <title>E237E6B9-8640-4066-AB09-8F9C307C5A8C</title>
    <desc>Created with sketchtool.</desc>
    <defs>
        <linearGradient x1="50%" y1="3.15886922%" x2="50%" y2="105.688741%" id="linearGradient-1">
            <stop stop-color="#6F6EB2" offset="0%"></stop>
            <stop stop-color="#352C64" offset="100%"></stop>
        </linearGradient>
    </defs>
    <g id="Page-1" stroke="none" stroke-width="1" fill="none" fill-rule="evenodd">
        <g id="Phatra_test" transform="translate(-953.000000, -3047.000000)" fill="#FFFFFF" fill-rule="nonzero">
            <g id="Group-5" transform="translate(1.000000, 2797.000000)">
                <g id="Group-7-Copy" transform="translate(899.000000, 250.000000)">
                    <g id="twitter" transform="translate(53.000000, 0.000000)">
                        <path d="M21.9725339,0 C9.83820123,0 0,9.83820123 0,21.9725339 C0,34.1068665 9.83820123,43.9450678 21.9725339,43.9450678 C34.1068665,43.9450678 43.9450678,34.1068665 43.9450678,21.9725339 C43.9450678,9.83549076 34.1068665,0 21.9725339,0 Z M32.9038686,17.039655 L32.9203121,17.7400411 C32.9203121,24.8920739 27.4794004,33.1318193 17.5285339,33.1318193 C14.4743737,33.1318193 11.6316304,32.23646 9.23665708,30.7010678 C9.65967146,30.7504887 10.0908172,30.7779548 10.5275647,30.7779548 C13.0626694,30.7779548 15.3944887,29.9127721 17.2456509,28.4625791 C14.8781437,28.4186694 12.8813388,26.8531006 12.1919754,24.7053224 C12.5242793,24.7684764 12.859384,24.7987433 13.2109322,24.7987433 C13.7053224,24.7987433 14.1831786,24.7355893 14.6363696,24.6119918 C12.1617084,24.1120903 10.2968131,21.9286242 10.2968131,19.3084107 L10.2968131,19.2397454 C11.0273758,19.6462259 11.8595811,19.8879097 12.7467187,19.9181766 C11.2965257,18.9486407 10.3407228,17.2924517 10.3407228,15.4165339 C10.3407228,14.4250431 10.6071622,13.4967064 11.0712854,12.6974784 C13.7382094,15.9713676 17.7262177,18.1246571 22.2223491,18.3498973 C22.1289281,17.9543491 22.082308,17.5396468 22.082308,17.1167228 C22.082308,14.1312279 24.5047474,11.7086982 27.4930431,11.7086982 C29.0475893,11.7086982 30.4538727,12.3650842 31.4425626,13.4170185 C32.6730267,13.1725339 33.832115,12.7221437 34.878538,12.1041561 C34.474768,13.3675975 33.6178973,14.4277536 32.5000082,15.0978727 C33.5904312,14.9687639 34.6368542,14.6748583 35.6063901,14.246423 C34.8813388,15.3285339 33.9612238,16.2816263 32.9038686,17.039655 Z" id="Shape"></path>
                    </g>
                </g>
            </g>
        </g>
    </g>
</svg>